# xmcd
# Copyright (C) 1995-1998 Ti Kan
#
# Track frame offsets:
#       150
#       24705
#       47563
#       68800
#       92440
#       109873
#       131428
#       152465
#       172865
#       181500
#       205235
#       221905
#
# Disc length: 3248 seconds
#
# Revision: 2
# Processed by: cddbd v1.4PL0 Copyright (c) Steve Scherf et al.
# Submitted via: CD-Transfer v1.0
#
DISCID=960cae0c
DTITLE=Double - Dou3le
DYEAR=2000
DGENRE=
TTITLE0=Fire In Disguise
TTITLE1=Gliding
TTITLE2=Lake In The Desert
TTITLE3=Circles
TTITLE4=Prove Your Love
TTITLE5=(You Don't Let Me Get) Close Enough
TTITLE6=Silent Mountain
TTITLE7=Devils Ball
TTITLE8=Wrong Time
TTITLE9=Megarhythmdance
TTITLE10=Gliding - Single Version
TTITLE11=Devils Ball - Piano Version
EXTD=
EXTT0=
EXTT1=
EXTT2=
EXTT3=
EXTT4=
EXTT5=
EXTT6=
EXTT7=
EXTT8=
EXTT9=
EXTT10=
EXTT11=
PLAYORDER=
